<svg xmlns="http://www.w3.org/2000/svg" xmlns:xlink="http://www.w3.org/1999/xlink" width="1366" zoomAndPan="magnify" viewBox="0 0 1024.5 263.250001" height="351" preserveAspectRatio="xMidYMid meet" version="1.0"><defs><g/><clipPath id="7159da6044"><path d="M 991 118 L 1011.152344 118 L 1011.152344 127 L 991 127 Z M 991 118 " clip-rule="nonzero"/></clipPath><clipPath id="80ae182fb7"><path d="M 968 143 L 978 143 L 978 164.171875 L 968 164.171875 Z M 968 143 " clip-rule="nonzero"/></clipPath><clipPath id="c5c732597d"><path d="M 962 145 L 967 145 L 967 164.171875 L 962 164.171875 Z M 962 145 " clip-rule="nonzero"/></clipPath><clipPath id="f8e544602d"><path d="M 950 144 L 959 144 L 959 164.171875 L 950 164.171875 Z M 950 144 " clip-rule="nonzero"/></clipPath><clipPath id="b6d9d8e5e9"><path d="M 911.800781 115 L 933 115 L 933 120 L 911.800781 120 Z M 911.800781 115 " clip-rule="nonzero"/></clipPath><clipPath id="fb597f102a"><path d="M 957 64.820312 L 963 64.820312 L 963 86 L 957 86 Z M 957 64.820312 " clip-rule="nonzero"/></clipPath><clipPath id="c4f11d63b2"><path d="M 990 99 L 1011.152344 99 L 1011.152344 109 L 990 109 Z M 990 99 " clip-rule="nonzero"/></clipPath><clipPath id="bfac12f3fa"><path d="M 992 110 L 1011.152344 110 L 1011.152344 116 L 992 116 Z M 992 110 " clip-rule="nonzero"/></clipPath><clipPath id="3d715cee85"><path d="M 990 118 L 1010.386719 118 L 1010.386719 126 L 990 126 Z M 990 118 " clip-rule="nonzero"/></clipPath><clipPath id="b1377f38de"><path d="M 967 143 L 978 143 L 978 163.695312 L 967 163.695312 Z M 967 143 " clip-rule="nonzero"/></clipPath><clipPath id="46311a8b28"><path d="M 961 144 L 967 144 L 967 163.695312 L 961 163.695312 Z M 961 144 " clip-rule="nonzero"/></clipPath><clipPath id="374d1c36c4"><path d="M 950 143 L 958 143 L 958 163.695312 L 950 163.695312 Z M 950 143 " clip-rule="nonzero"/></clipPath><clipPath id="8f705a0642"><path d="M 911.035156 114 L 932 114 L 932 120 L 911.035156 120 Z M 911.035156 114 " clip-rule="nonzero"/></clipPath><clipPath id="69a42eaeef"><path d="M 911.035156 103 L 932 103 L 932 111 L 911.035156 111 Z M 911.035156 103 " clip-rule="nonzero"/></clipPath><clipPath id="426eb91353"><path d="M 956 64.34375 L 962 64.34375 L 962 85 L 956 85 Z M 956 64.34375 " clip-rule="nonzero"/></clipPath><clipPath id="111ddf1b8a"><path d="M 965 64.34375 L 973 64.34375 L 973 86 L 965 86 Z M 965 64.34375 " clip-rule="nonzero"/></clipPath><clipPath id="acf78cc902"><path d="M 989 98 L 1010.386719 98 L 1010.386719 108 L 989 108 Z M 989 98 " clip-rule="nonzero"/></clipPath><clipPath id="c457087a14"><path d="M 991 109 L 1010.386719 109 L 1010.386719 115 L 991 115 Z M 991 109 " clip-rule="nonzero"/></clipPath></defs><g clip-path="url(#7159da6044)"><path fill="#ffffff" d="M 991.425781 121.777344 C 991.476562 121.535156 991.542969 121.300781 991.585938 121.058594 L 991.714844 120.335938 C 991.757812 120.097656 991.804688 119.855469 991.84375 119.613281 L 991.933594 118.882812 L 1011.871094 121.402344 L 1011.714844 122.617188 C 1011.652344 123.019531 1011.574219 123.421875 1011.503906 123.824219 L 1011.289062 125.03125 C 1011.207031 125.433594 1011.109375 125.832031 1011.019531 126.230469 Z M 991.425781 121.777344 " fill-opacity="1" fill-rule="nonzero"/></g><path fill="#ffffff" d="M 989.210938 128.136719 L 989.816406 126.796875 L 990.355469 125.433594 L 1009.222656 132.351562 L 1008.324219 134.632812 L 1007.3125 136.867188 Z M 989.210938 128.136719 " fill-opacity="1" fill-rule="nonzero"/><path fill="#ffffff" d="M 985.605469 133.84375 C 985.90625 133.457031 986.222656 133.078125 986.496094 132.671875 C 986.777344 132.269531 987.074219 131.878906 987.328125 131.457031 L 1004.175781 142.414062 C 1003.746094 143.105469 1003.265625 143.765625 1002.792969 144.433594 C 1002.328125 145.105469 1001.8125 145.742188 1001.308594 146.382812 Z M 985.605469 133.84375 " fill-opacity="1" fill-rule="nonzero"/><path fill="#ffffff" d="M 980.824219 138.625 C 981.222656 138.332031 981.578125 137.996094 981.953125 137.679688 C 982.335938 137.367188 982.675781 137.011719 983.035156 136.679688 L 997.035156 151.09375 C 996.445312 151.652344 995.867188 152.230469 995.238281 152.753906 C 994.621094 153.289062 994.015625 153.832031 993.363281 154.328125 Z M 980.824219 138.625 " fill-opacity="1" fill-rule="nonzero"/><path fill="#ffffff" d="M 975.117188 142.230469 L 976.425781 141.558594 L 977.699219 140.824219 L 988.15625 157.984375 C 987.453125 158.402344 986.742188 158.804688 986.03125 159.210938 C 985.308594 159.589844 984.578125 159.960938 983.847656 160.328125 Z M 975.117188 142.230469 " fill-opacity="1" fill-rule="nonzero"/><g clip-path="url(#80ae182fb7)"><path fill="#ffffff" d="M 968.757812 144.441406 L 969.472656 144.28125 C 969.710938 144.226562 969.941406 144.148438 970.179688 144.082031 L 970.886719 143.882812 C 971.121094 143.820312 971.347656 143.730469 971.582031 143.652344 L 977.9375 162.71875 C 977.546875 162.84375 977.164062 162.988281 976.769531 163.097656 L 975.589844 163.4375 C 975.195312 163.542969 974.804688 163.664062 974.40625 163.761719 L 973.210938 164.039062 Z M 968.757812 144.441406 " fill-opacity="1" fill-rule="nonzero"/></g><g clip-path="url(#c5c732597d)"><path fill="#ffffff" d="M 962.042969 145.203125 L 963.519531 145.164062 L 964.988281 145.058594 L 966.921875 165.058594 C 966.109375 165.125 965.296875 165.191406 964.484375 165.238281 L 962.042969 165.300781 Z M 962.042969 145.203125 " fill-opacity="1" fill-rule="nonzero"/></g><g clip-path="url(#f8e544602d)"><path fill="#ffffff" d="M 955.324219 144.441406 C 955.5625 144.496094 955.800781 144.558594 956.039062 144.605469 L 956.765625 144.730469 C 957.003906 144.773438 957.246094 144.824219 957.488281 144.863281 L 958.214844 144.953125 L 955.699219 164.890625 L 954.484375 164.730469 C 954.078125 164.667969 953.679688 164.59375 953.273438 164.523438 L 952.070312 164.304688 C 951.667969 164.226562 951.269531 164.128906 950.871094 164.039062 Z M 955.324219 144.441406 " fill-opacity="1" fill-rule="nonzero"/></g><path fill="#ffffff" d="M 948.964844 142.230469 L 950.300781 142.835938 L 951.667969 143.375 L 944.75 162.242188 L 942.46875 161.339844 L 940.234375 160.328125 Z M 948.964844 142.230469 " fill-opacity="1" fill-rule="nonzero"/><path fill="#ffffff" d="M 943.257812 138.625 C 943.644531 138.925781 944.019531 139.242188 944.429688 139.515625 C 944.832031 139.796875 945.222656 140.09375 945.644531 140.347656 L 934.6875 157.195312 C 933.992188 156.761719 933.332031 156.28125 932.667969 155.808594 C 931.996094 155.347656 931.359375 154.832031 930.71875 154.328125 Z M 943.257812 138.625 " fill-opacity="1" fill-rule="nonzero"/><path fill="#ffffff" d="M 938.476562 133.84375 C 938.769531 134.238281 939.105469 134.597656 939.421875 134.972656 C 939.734375 135.351562 940.089844 135.691406 940.421875 136.054688 L 926.007812 150.054688 C 925.445312 149.460938 924.871094 148.882812 924.34375 148.257812 C 923.8125 147.640625 923.265625 147.03125 922.773438 146.382812 Z M 938.476562 133.84375 " fill-opacity="1" fill-rule="nonzero"/><path fill="#ffffff" d="M 934.871094 128.136719 L 935.542969 129.441406 L 936.277344 130.714844 L 919.117188 141.171875 C 918.699219 140.46875 918.296875 139.757812 917.890625 139.050781 C 917.511719 138.324219 917.140625 137.597656 916.769531 136.867188 Z M 934.871094 128.136719 " fill-opacity="1" fill-rule="nonzero"/><path fill="#ffffff" d="M 932.660156 121.777344 L 932.820312 122.492188 C 932.875 122.730469 932.953125 122.960938 933.019531 123.195312 L 933.214844 123.902344 C 933.28125 124.140625 933.371094 124.367188 933.449219 124.597656 L 914.382812 130.953125 C 914.253906 130.566406 914.113281 130.183594 914 129.789062 L 913.664062 128.609375 C 913.554688 128.214844 913.433594 127.824219 913.339844 127.425781 L 913.0625 126.230469 Z M 932.660156 121.777344 " fill-opacity="1" fill-rule="nonzero"/><g clip-path="url(#b6d9d8e5e9)"><path fill="#ffffff" d="M 931.898438 115.058594 L 931.933594 116.539062 L 932.042969 118.007812 L 912.039062 119.941406 C 911.976562 119.128906 911.910156 118.316406 911.863281 117.5 L 911.800781 115.058594 Z M 931.898438 115.058594 " fill-opacity="1" fill-rule="nonzero"/></g><path fill="#ffffff" d="M 932.660156 108.34375 C 932.605469 108.582031 932.542969 108.820312 932.496094 109.058594 L 932.367188 109.78125 C 932.328125 110.023438 932.277344 110.261719 932.238281 110.503906 L 932.148438 111.234375 L 912.210938 108.714844 L 912.367188 107.5 C 912.433594 107.097656 912.507812 106.695312 912.578125 106.292969 L 912.796875 105.085938 C 912.875 104.683594 912.972656 104.289062 913.0625 103.890625 Z M 932.660156 108.34375 " fill-opacity="1" fill-rule="nonzero"/><path fill="#ffffff" d="M 934.871094 101.984375 L 934.265625 103.320312 L 933.726562 104.683594 L 914.859375 97.769531 L 915.757812 95.488281 L 916.769531 93.25 Z M 934.871094 101.984375 " fill-opacity="1" fill-rule="nonzero"/><path fill="#ffffff" d="M 938.476562 96.277344 C 938.175781 96.664062 937.859375 97.039062 937.585938 97.449219 C 937.304688 97.847656 937.007812 98.242188 936.753906 98.660156 L 919.90625 87.707031 C 920.339844 87.011719 920.820312 86.351562 921.292969 85.6875 C 921.753906 85.011719 922.269531 84.378906 922.773438 83.734375 Z M 938.476562 96.277344 " fill-opacity="1" fill-rule="nonzero"/><path fill="#ffffff" d="M 943.257812 91.496094 C 942.863281 91.785156 942.503906 92.125 942.128906 92.441406 C 941.746094 92.75 941.40625 93.105469 941.046875 93.441406 L 927.046875 79.027344 C 927.640625 78.464844 928.21875 77.886719 928.84375 77.363281 C 929.460938 76.832031 930.066406 76.285156 930.71875 75.789062 Z M 943.257812 91.496094 " fill-opacity="1" fill-rule="nonzero"/><path fill="#ffffff" d="M 948.964844 87.890625 L 947.660156 88.558594 L 946.386719 89.292969 L 935.929688 72.132812 C 936.632812 71.71875 937.34375 71.3125 938.050781 70.910156 C 938.777344 70.53125 939.503906 70.160156 940.234375 69.789062 Z M 948.964844 87.890625 " fill-opacity="1" fill-rule="nonzero"/><path fill="#ffffff" d="M 955.324219 85.675781 L 954.609375 85.839844 C 954.371094 85.894531 954.140625 85.972656 953.902344 86.035156 L 953.199219 86.234375 C 952.960938 86.300781 952.734375 86.390625 952.503906 86.464844 L 946.144531 67.402344 C 946.535156 67.273438 946.917969 67.132812 947.3125 67.019531 L 948.492188 66.683594 C 948.886719 66.574219 949.277344 66.453125 949.675781 66.359375 L 950.871094 66.082031 Z M 955.324219 85.675781 " fill-opacity="1" fill-rule="nonzero"/><g clip-path="url(#fb597f102a)"><path fill="#ffffff" d="M 962.042969 84.914062 L 960.5625 84.953125 L 959.09375 85.0625 L 957.160156 65.058594 C 957.972656 64.996094 958.785156 64.925781 959.597656 64.878906 L 962.042969 64.820312 Z M 962.042969 84.914062 " fill-opacity="1" fill-rule="nonzero"/></g><path fill="#ffffff" d="M 968.757812 85.675781 C 968.519531 85.625 968.28125 85.558594 968.042969 85.511719 L 967.320312 85.386719 C 967.078125 85.34375 966.839844 85.296875 966.597656 85.257812 L 965.867188 85.167969 L 968.382812 65.230469 L 969.597656 65.386719 C 970.003906 65.449219 970.40625 65.527344 970.808594 65.597656 L 972.015625 65.8125 C 972.414062 65.890625 972.8125 65.992188 973.210938 66.082031 Z M 968.757812 85.675781 " fill-opacity="1" fill-rule="nonzero"/><path fill="#ffffff" d="M 975.117188 87.890625 L 973.78125 87.285156 L 972.414062 86.746094 L 979.332031 67.875 L 981.613281 68.777344 L 983.847656 69.789062 Z M 975.117188 87.890625 " fill-opacity="1" fill-rule="nonzero"/><path fill="#ffffff" d="M 980.824219 91.496094 C 980.4375 91.195312 980.0625 90.875 979.652344 90.605469 C 979.25 90.320312 978.859375 90.027344 978.441406 89.773438 L 989.394531 72.925781 C 990.089844 73.355469 990.75 73.835938 991.414062 74.308594 C 992.085938 74.773438 992.722656 75.285156 993.363281 75.789062 Z M 980.824219 91.496094 " fill-opacity="1" fill-rule="nonzero"/><path fill="#ffffff" d="M 985.605469 96.277344 C 985.316406 95.878906 984.976562 95.523438 984.660156 95.148438 C 984.351562 94.765625 983.996094 94.425781 983.660156 94.066406 L 998.074219 80.0625 C 998.636719 80.65625 999.210938 81.234375 999.738281 81.859375 C 1000.269531 82.480469 1000.816406 83.085938 1001.308594 83.734375 Z M 985.605469 96.277344 " fill-opacity="1" fill-rule="nonzero"/><path fill="#ffffff" d="M 989.210938 101.984375 L 988.539062 100.675781 L 987.804688 99.402344 L 1004.96875 88.945312 C 1005.382812 89.648438 1005.785156 90.359375 1006.191406 91.070312 C 1006.570312 91.792969 1006.941406 92.523438 1007.3125 93.25 Z M 989.210938 101.984375 " fill-opacity="1" fill-rule="nonzero"/><g clip-path="url(#c4f11d63b2)"><path fill="#ffffff" d="M 991.425781 108.34375 L 991.261719 107.628906 C 991.207031 107.390625 991.128906 107.15625 991.066406 106.921875 L 990.867188 106.214844 C 990.800781 105.980469 990.710938 105.753906 990.636719 105.519531 L 1009.699219 99.164062 C 1009.828125 99.554688 1009.96875 99.9375 1010.082031 100.332031 L 1010.417969 101.511719 C 1010.527344 101.90625 1010.648438 102.296875 1010.742188 102.695312 L 1011.019531 103.890625 Z M 991.425781 108.34375 " fill-opacity="1" fill-rule="nonzero"/></g><g clip-path="url(#bfac12f3fa)"><path fill="#ffffff" d="M 992.1875 115.058594 L 992.148438 113.582031 L 992.039062 112.113281 L 1012.042969 110.175781 C 1012.105469 110.992188 1012.175781 111.804688 1012.21875 112.617188 L 1012.28125 115.058594 Z M 992.1875 115.058594 " fill-opacity="1" fill-rule="nonzero"/></g><g fill="#ffffff" fill-opacity="0.9216"><g transform="translate(18.2829, 168.186121)"><g><path d="M 75.171875 1.625 C 69.648438 1.625 64.601562 0.40625 60.03125 -2.03125 C 55.46875 -4.476562 51.851562 -7.867188 49.1875 -12.203125 C 46.519531 -16.546875 45.1875 -21.707031 45.1875 -27.6875 L 45.1875 -69.0625 C 45.1875 -70.507812 44.820312 -71.820312 44.09375 -73 C 43.375 -74.175781 42.425781 -75.125 41.25 -75.84375 C 40.070312 -76.570312 38.757812 -76.9375 37.3125 -76.9375 C 35.863281 -76.9375 34.550781 -76.570312 33.375 -75.84375 C 32.195312 -75.125 31.269531 -74.175781 30.59375 -73 C 29.914062 -71.820312 29.578125 -70.507812 29.578125 -69.0625 L 29.578125 0 L 7.328125 0 L 7.328125 -67.4375 C 7.328125 -73.132812 8.613281 -78.15625 11.1875 -82.5 C 13.769531 -86.84375 17.34375 -90.28125 21.90625 -92.8125 C 26.476562 -95.34375 31.613281 -96.609375 37.3125 -96.609375 C 43.101562 -96.609375 48.257812 -95.34375 52.78125 -92.8125 C 57.300781 -90.28125 60.875 -86.84375 63.5 -82.5 C 66.125 -78.15625 67.4375 -73.132812 67.4375 -67.4375 L 67.4375 -26.046875 C 67.4375 -24.515625 67.796875 -23.160156 68.515625 -21.984375 C 69.242188 -20.804688 70.171875 -19.878906 71.296875 -19.203125 C 72.429688 -18.523438 73.675781 -18.1875 75.03125 -18.1875 C 76.476562 -18.1875 77.8125 -18.523438 79.03125 -19.203125 C 80.257812 -19.878906 81.234375 -20.804688 81.953125 -21.984375 C 82.679688 -23.160156 83.046875 -24.515625 83.046875 -26.046875 L 83.046875 -67.4375 C 83.046875 -73.132812 84.351562 -78.15625 86.96875 -82.5 C 89.59375 -86.84375 93.1875 -90.28125 97.75 -92.8125 C 102.320312 -95.34375 107.414062 -96.609375 113.03125 -96.609375 C 118.820312 -96.609375 123.953125 -95.34375 128.421875 -92.8125 C 132.898438 -90.28125 136.453125 -86.84375 139.078125 -82.5 C 141.703125 -78.15625 143.015625 -73.132812 143.015625 -67.4375 L 143.015625 0 L 120.765625 0 L 120.765625 -69.203125 C 120.765625 -70.648438 120.425781 -71.9375 119.75 -73.0625 C 119.070312 -74.195312 118.144531 -75.125 116.96875 -75.84375 C 115.789062 -76.570312 114.476562 -76.9375 113.03125 -76.9375 C 111.675781 -76.9375 110.382812 -76.570312 109.15625 -75.84375 C 107.9375 -75.125 106.960938 -74.195312 106.234375 -73.0625 C 105.515625 -71.9375 105.15625 -70.648438 105.15625 -69.203125 L 105.15625 -27.6875 C 105.15625 -21.707031 103.796875 -16.546875 101.078125 -12.203125 C 98.367188 -7.867188 94.753906 -4.476562 90.234375 -2.03125 C 85.710938 0.40625 80.691406 1.625 75.171875 1.625 Z M 75.171875 1.625 "/></g></g></g><g fill="#ffffff" fill-opacity="0.9216"><g transform="translate(168.629144, 168.186121)"><g><path d="M 54.28125 1.765625 C 46.675781 1.765625 39.796875 0.5 33.640625 -2.03125 C 27.492188 -4.5625 22.203125 -8.085938 17.765625 -12.609375 C 13.335938 -17.140625 9.925781 -22.390625 7.53125 -28.359375 C 5.132812 -34.328125 3.9375 -40.75 3.9375 -47.625 C 3.9375 -54.5 5.132812 -60.921875 7.53125 -66.890625 C 9.925781 -72.859375 13.316406 -78.082031 17.703125 -82.5625 C 22.085938 -87.039062 27.378906 -90.523438 33.578125 -93.015625 C 39.773438 -95.503906 46.675781 -96.75 54.28125 -96.75 C 61.78125 -96.75 68.628906 -95.503906 74.828125 -93.015625 C 81.023438 -90.523438 86.316406 -87.039062 90.703125 -82.5625 C 95.085938 -78.082031 98.5 -72.832031 100.9375 -66.8125 C 103.382812 -60.800781 104.609375 -54.40625 104.609375 -47.625 C 104.609375 -40.75 103.382812 -34.328125 100.9375 -28.359375 C 98.5 -22.390625 95.085938 -17.140625 90.703125 -12.609375 C 86.316406 -8.085938 81.023438 -4.5625 74.828125 -2.03125 C 68.628906 0.5 61.78125 1.765625 54.28125 1.765625 Z M 54.28125 -17.640625 C 58.257812 -17.640625 61.941406 -18.382812 65.328125 -19.875 C 68.722656 -21.363281 71.640625 -23.46875 74.078125 -26.1875 C 76.523438 -28.90625 78.425781 -32.09375 79.78125 -35.75 C 81.132812 -39.414062 81.8125 -43.375 81.8125 -47.625 C 81.8125 -51.875 81.132812 -55.804688 79.78125 -59.421875 C 78.425781 -63.046875 76.523438 -66.210938 74.078125 -68.921875 C 71.640625 -71.640625 68.722656 -73.742188 65.328125 -75.234375 C 61.941406 -76.734375 58.257812 -77.484375 54.28125 -77.484375 C 50.207031 -77.484375 46.492188 -76.734375 43.140625 -75.234375 C 39.796875 -73.742188 36.878906 -71.640625 34.390625 -68.921875 C 31.910156 -66.210938 30.015625 -63.023438 28.703125 -59.359375 C 27.390625 -55.703125 26.734375 -51.789062 26.734375 -47.625 C 26.734375 -43.375 27.390625 -39.414062 28.703125 -35.75 C 30.015625 -32.09375 31.910156 -28.90625 34.390625 -26.1875 C 36.878906 -23.46875 39.796875 -21.363281 43.140625 -19.875 C 46.492188 -18.382812 50.207031 -17.640625 54.28125 -17.640625 Z M 54.28125 -17.640625 "/></g></g></g><g fill="#ffffff" fill-opacity="0.9216"><g transform="translate(277.046678, 168.186121)"><g><path d="M 8.28125 0 L 8.28125 -94.984375 L 51.703125 -94.984375 C 58.117188 -94.984375 63.972656 -93.578125 69.265625 -90.765625 C 74.554688 -87.960938 78.757812 -84.070312 81.875 -79.09375 C 85 -74.125 86.5625 -68.382812 86.5625 -61.875 C 86.5625 -55.8125 85.113281 -50.359375 82.21875 -45.515625 C 79.332031 -40.679688 75.535156 -36.769531 70.828125 -33.78125 L 78.421875 -20.890625 C 78.878906 -20.265625 79.398438 -19.769531 79.984375 -19.40625 C 80.578125 -19.039062 81.367188 -18.859375 82.359375 -18.859375 L 90.78125 -18.859375 L 90.78125 0 L 77.484375 0 C 73.410156 0 69.695312 -0.96875 66.34375 -2.90625 C 63 -4.851562 60.378906 -7.410156 58.484375 -10.578125 L 48.3125 -28.625 C 47.675781 -28.625 47.015625 -28.625 46.328125 -28.625 C 45.648438 -28.625 44.953125 -28.625 44.234375 -28.625 L 31.078125 -28.625 L 31.078125 0 Z M 31.078125 -47.484375 L 49.125 -47.484375 C 51.738281 -47.484375 54.175781 -48.050781 56.4375 -49.1875 C 58.707031 -50.320312 60.492188 -51.953125 61.796875 -54.078125 C 63.109375 -56.203125 63.765625 -58.753906 63.765625 -61.734375 C 63.765625 -64.722656 63.085938 -67.28125 61.734375 -69.40625 C 60.378906 -71.53125 58.59375 -73.15625 56.375 -74.28125 C 54.15625 -75.414062 51.738281 -75.984375 49.125 -75.984375 L 31.078125 -75.984375 Z M 31.078125 -47.484375 "/></g></g></g><g fill="#ffffff" fill-opacity="0.9216"><g transform="translate(369.859695, 168.186121)"><g><path d="M 8.28125 0 L 8.28125 -94.984375 L 43.15625 -94.984375 C 53.1875 -94.984375 61.890625 -92.945312 69.265625 -88.875 C 76.640625 -84.800781 82.382812 -79.191406 86.5 -72.046875 C 90.613281 -64.898438 92.671875 -56.710938 92.671875 -47.484375 C 92.671875 -38.265625 90.613281 -30.082031 86.5 -22.9375 C 82.382812 -15.789062 76.640625 -10.179688 69.265625 -6.109375 C 61.890625 -2.035156 53.1875 0 43.15625 0 Z M 31.078125 -19 L 42.609375 -19 C 47.847656 -19 52.523438 -20.148438 56.640625 -22.453125 C 60.765625 -24.765625 64 -28.046875 66.34375 -32.296875 C 68.695312 -36.546875 69.875 -41.609375 69.875 -47.484375 C 69.875 -53.367188 68.695312 -58.4375 66.34375 -62.6875 C 64 -66.9375 60.765625 -70.210938 56.640625 -72.515625 C 52.523438 -74.828125 47.847656 -75.984375 42.609375 -75.984375 L 31.078125 -75.984375 Z M 31.078125 -19 "/></g></g></g><g fill="#ffffff" fill-opacity="0.9216"><g transform="translate(466.336378, 168.186121)"><g><path d="M 6.109375 0 L 6.109375 -19 L 22.53125 -19 L 22.53125 -75.984375 L 6.109375 -75.984375 L 6.109375 -94.984375 L 61.609375 -94.984375 L 61.609375 -75.984375 L 45.1875 -75.984375 L 45.1875 -19 L 61.609375 -19 L 61.609375 0 Z M 6.109375 0 "/></g></g></g><g fill="#ffffff" fill-opacity="0.9216"><g transform="translate(534.046449, 168.186121)"><g><path d="M 8.8125 0 L 8.8125 -19 L 49.390625 -19 C 51.203125 -19 52.832031 -19.445312 54.28125 -20.34375 C 55.726562 -21.25 56.878906 -22.425781 57.734375 -23.875 C 58.597656 -25.320312 59.03125 -26.90625 59.03125 -28.625 C 59.03125 -30.4375 58.597656 -32.066406 57.734375 -33.515625 C 56.878906 -34.960938 55.726562 -36.140625 54.28125 -37.046875 C 52.832031 -37.953125 51.203125 -38.40625 49.390625 -38.40625 L 34.734375 -38.40625 C 29.210938 -38.40625 24.191406 -39.488281 19.671875 -41.65625 C 15.148438 -43.820312 11.554688 -47.007812 8.890625 -51.21875 C 6.222656 -55.425781 4.890625 -60.46875 4.890625 -66.34375 C 4.890625 -72.132812 6.15625 -77.15625 8.6875 -81.40625 C 11.21875 -85.664062 14.65625 -88.992188 19 -91.390625 C 23.34375 -93.785156 28.132812 -94.984375 33.375 -94.984375 L 75.3125 -94.984375 L 75.3125 -75.984375 L 35.953125 -75.984375 C 34.328125 -75.984375 32.832031 -75.578125 31.46875 -74.765625 C 30.113281 -73.953125 29.070312 -72.863281 28.34375 -71.5 C 27.625 -70.144531 27.265625 -68.65625 27.265625 -67.03125 C 27.265625 -65.40625 27.625 -63.9375 28.34375 -62.625 C 29.070312 -61.3125 30.113281 -60.242188 31.46875 -59.421875 C 32.832031 -58.609375 34.328125 -58.203125 35.953125 -58.203125 L 51.296875 -58.203125 C 57.347656 -58.203125 62.613281 -57.050781 67.09375 -54.75 C 71.570312 -52.445312 75.054688 -49.234375 77.546875 -45.109375 C 80.035156 -40.992188 81.28125 -36.179688 81.28125 -30.671875 C 81.28125 -24.148438 79.988281 -18.601562 77.40625 -14.03125 C 74.832031 -9.46875 71.375 -5.988281 67.03125 -3.59375 C 62.6875 -1.195312 57.890625 0 52.640625 0 Z M 8.8125 0 "/></g></g></g><g fill="#ffffff" fill-opacity="0.9216"><g transform="translate(619.66782, 168.186121)"><g><path d="M 43.015625 27.546875 L 43.015625 -2.03125 L 65.53125 -2.03125 L 65.53125 27.546875 Z M 54.28125 1.765625 C 46.675781 1.765625 39.796875 0.5 33.640625 -2.03125 C 27.492188 -4.5625 22.203125 -8.085938 17.765625 -12.609375 C 13.335938 -17.140625 9.925781 -22.390625 7.53125 -28.359375 C 5.132812 -34.328125 3.9375 -40.75 3.9375 -47.625 C 3.9375 -54.5 5.132812 -60.921875 7.53125 -66.890625 C 9.925781 -72.859375 13.316406 -78.082031 17.703125 -82.5625 C 22.085938 -87.039062 27.378906 -90.523438 33.578125 -93.015625 C 39.773438 -95.503906 46.675781 -96.75 54.28125 -96.75 C 61.78125 -96.75 68.628906 -95.503906 74.828125 -93.015625 C 81.023438 -90.523438 86.316406 -87.039062 90.703125 -82.5625 C 95.085938 -78.082031 98.5 -72.832031 100.9375 -66.8125 C 103.382812 -60.800781 104.609375 -54.40625 104.609375 -47.625 C 104.609375 -40.75 103.382812 -34.328125 100.9375 -28.359375 C 98.5 -22.390625 95.085938 -17.140625 90.703125 -12.609375 C 86.316406 -8.085938 81.023438 -4.5625 74.828125 -2.03125 C 68.628906 0.5 61.78125 1.765625 54.28125 1.765625 Z M 54.28125 -17.640625 C 58.257812 -17.640625 61.941406 -18.382812 65.328125 -19.875 C 68.722656 -21.363281 71.640625 -23.46875 74.078125 -26.1875 C 76.523438 -28.90625 78.425781 -32.09375 79.78125 -35.75 C 81.132812 -39.414062 81.8125 -43.375 81.8125 -47.625 C 81.8125 -51.875 81.132812 -55.804688 79.78125 -59.421875 C 78.425781 -63.046875 76.523438 -66.210938 74.078125 -68.921875 C 71.640625 -71.640625 68.722656 -73.742188 65.328125 -75.234375 C 61.941406 -76.734375 58.257812 -77.484375 54.28125 -77.484375 C 50.207031 -77.484375 46.492188 -76.734375 43.140625 -75.234375 C 39.796875 -73.742188 36.878906 -71.640625 34.390625 -68.921875 C 31.910156 -66.210938 30.015625 -63.023438 28.703125 -59.359375 C 27.390625 -55.703125 26.734375 -51.789062 26.734375 -47.625 C 26.734375 -43.375 27.390625 -39.414062 28.703125 -35.75 C 30.015625 -32.09375 31.910156 -28.90625 34.390625 -26.1875 C 36.878906 -23.46875 39.796875 -21.363281 43.140625 -19.875 C 46.492188 -18.382812 50.207031 -17.640625 54.28125 -17.640625 Z M 54.28125 -17.640625 "/></g></g></g><g fill="#ffffff" fill-opacity="0.9216"><g transform="translate(728.085377, 168.186121)"><g><path d="M 48.3125 1.625 C 40.4375 1.625 33.445312 0.0390625 27.34375 -3.125 C 21.238281 -6.289062 16.46875 -10.8125 13.03125 -16.6875 C 9.59375 -22.570312 7.875 -29.582031 7.875 -37.71875 L 7.875 -94.984375 L 30.390625 -94.984375 L 30.390625 -36.5 C 30.390625 -32.96875 31.113281 -29.773438 32.5625 -26.921875 C 34.007812 -24.078125 36.085938 -21.816406 38.796875 -20.140625 C 41.515625 -18.472656 44.6875 -17.640625 48.3125 -17.640625 C 52.019531 -17.640625 55.207031 -18.472656 57.875 -20.140625 C 60.539062 -21.816406 62.597656 -24.078125 64.046875 -26.921875 C 65.492188 -29.773438 66.21875 -32.96875 66.21875 -36.5 L 66.21875 -94.984375 L 88.734375 -94.984375 L 88.734375 -37.71875 C 88.734375 -29.582031 86.992188 -22.570312 83.515625 -16.6875 C 80.035156 -10.8125 75.265625 -6.289062 69.203125 -3.125 C 63.140625 0.0390625 56.175781 1.625 48.3125 1.625 Z M 48.3125 1.625 "/></g></g></g><g fill="#ffffff" fill-opacity="0.9216"><g transform="translate(824.562082, 168.186121)"><g><path d="M 33.65625 0 C 28.3125 0 23.46875 -1.242188 19.125 -3.734375 C 14.789062 -6.222656 11.332031 -9.566406 8.75 -13.765625 C 6.175781 -17.972656 4.890625 -22.75 4.890625 -28.09375 C 4.890625 -32.070312 5.769531 -35.800781 7.53125 -39.28125 C 9.289062 -42.757812 11.664062 -45.769531 14.65625 -48.3125 C 11.757812 -50.75 9.472656 -53.640625 7.796875 -56.984375 C 6.128906 -60.335938 5.296875 -63.867188 5.296875 -67.578125 C 5.296875 -72.816406 6.5625 -77.492188 9.09375 -81.609375 C 11.625 -85.734375 15.015625 -88.992188 19.265625 -91.390625 C 23.515625 -93.785156 28.21875 -94.984375 33.375 -94.984375 L 73.40625 -94.984375 L 73.40625 -75.984375 L 36.90625 -75.984375 C 35.1875 -75.984375 33.601562 -75.578125 32.15625 -74.765625 C 30.707031 -73.953125 29.550781 -72.863281 28.6875 -71.5 C 27.832031 -70.144531 27.40625 -68.566406 27.40625 -66.765625 C 27.40625 -65.046875 27.832031 -63.484375 28.6875 -62.078125 C 29.550781 -60.671875 30.707031 -59.582031 32.15625 -58.8125 C 33.601562 -58.050781 35.1875 -57.671875 36.90625 -57.671875 L 68.796875 -57.671875 L 68.796875 -38.671875 L 37.578125 -38.671875 C 35.679688 -38.671875 33.960938 -38.21875 32.421875 -37.3125 C 30.890625 -36.40625 29.671875 -35.226562 28.765625 -33.78125 C 27.859375 -32.332031 27.40625 -30.660156 27.40625 -28.765625 C 27.40625 -26.953125 27.859375 -25.300781 28.765625 -23.8125 C 29.671875 -22.320312 30.890625 -21.164062 32.421875 -20.34375 C 33.960938 -19.53125 35.679688 -19.125 37.578125 -19.125 L 73.40625 -19.125 L 73.40625 0 Z M 33.65625 0 "/></g></g></g><g fill="#f62d93" fill-opacity="1"><g transform="translate(12.285777, 162.188998)"><g><path d="M 75.171875 1.625 C 69.648438 1.625 64.601562 0.40625 60.03125 -2.03125 C 55.46875 -4.476562 51.851562 -7.867188 49.1875 -12.203125 C 46.519531 -16.546875 45.1875 -21.707031 45.1875 -27.6875 L 45.1875 -69.0625 C 45.1875 -70.507812 44.820312 -71.820312 44.09375 -73 C 43.375 -74.175781 42.425781 -75.125 41.25 -75.84375 C 40.070312 -76.570312 38.757812 -76.9375 37.3125 -76.9375 C 35.863281 -76.9375 34.550781 -76.570312 33.375 -75.84375 C 32.195312 -75.125 31.269531 -74.175781 30.59375 -73 C 29.914062 -71.820312 29.578125 -70.507812 29.578125 -69.0625 L 29.578125 0 L 7.328125 0 L 7.328125 -67.4375 C 7.328125 -73.132812 8.613281 -78.15625 11.1875 -82.5 C 13.769531 -86.84375 17.34375 -90.28125 21.90625 -92.8125 C 26.476562 -95.34375 31.613281 -96.609375 37.3125 -96.609375 C 43.101562 -96.609375 48.257812 -95.34375 52.78125 -92.8125 C 57.300781 -90.28125 60.875 -86.84375 63.5 -82.5 C 66.125 -78.15625 67.4375 -73.132812 67.4375 -67.4375 L 67.4375 -26.046875 C 67.4375 -24.515625 67.796875 -23.160156 68.515625 -21.984375 C 69.242188 -20.804688 70.171875 -19.878906 71.296875 -19.203125 C 72.429688 -18.523438 73.675781 -18.1875 75.03125 -18.1875 C 76.476562 -18.1875 77.8125 -18.523438 79.03125 -19.203125 C 80.257812 -19.878906 81.234375 -20.804688 81.953125 -21.984375 C 82.679688 -23.160156 83.046875 -24.515625 83.046875 -26.046875 L 83.046875 -67.4375 C 83.046875 -73.132812 84.351562 -78.15625 86.96875 -82.5 C 89.59375 -86.84375 93.1875 -90.28125 97.75 -92.8125 C 102.320312 -95.34375 107.414062 -96.609375 113.03125 -96.609375 C 118.820312 -96.609375 123.953125 -95.34375 128.421875 -92.8125 C 132.898438 -90.28125 136.453125 -86.84375 139.078125 -82.5 C 141.703125 -78.15625 143.015625 -73.132812 143.015625 -67.4375 L 143.015625 0 L 120.765625 0 L 120.765625 -69.203125 C 120.765625 -70.648438 120.425781 -71.9375 119.75 -73.0625 C 119.070312 -74.195312 118.144531 -75.125 116.96875 -75.84375 C 115.789062 -76.570312 114.476562 -76.9375 113.03125 -76.9375 C 111.675781 -76.9375 110.382812 -76.570312 109.15625 -75.84375 C 107.9375 -75.125 106.960938 -74.195312 106.234375 -73.0625 C 105.515625 -71.9375 105.15625 -70.648438 105.15625 -69.203125 L 105.15625 -27.6875 C 105.15625 -21.707031 103.796875 -16.546875 101.078125 -12.203125 C 98.367188 -7.867188 94.753906 -4.476562 90.234375 -2.03125 C 85.710938 0.40625 80.691406 1.625 75.171875 1.625 Z M 75.171875 1.625 "/></g></g></g><g fill="#f62d93" fill-opacity="1"><g transform="translate(162.632021, 162.188998)"><g><path d="M 54.28125 1.765625 C 46.675781 1.765625 39.796875 0.5 33.640625 -2.03125 C 27.492188 -4.5625 22.203125 -8.085938 17.765625 -12.609375 C 13.335938 -17.140625 9.925781 -22.390625 7.53125 -28.359375 C 5.132812 -34.328125 3.9375 -40.75 3.9375 -47.625 C 3.9375 -54.5 5.132812 -60.921875 7.53125 -66.890625 C 9.925781 -72.859375 13.316406 -78.082031 17.703125 -82.5625 C 22.085938 -87.039062 27.378906 -90.523438 33.578125 -93.015625 C 39.773438 -95.503906 46.675781 -96.75 54.28125 -96.75 C 61.78125 -96.75 68.628906 -95.503906 74.828125 -93.015625 C 81.023438 -90.523438 86.316406 -87.039062 90.703125 -82.5625 C 95.085938 -78.082031 98.5 -72.832031 100.9375 -66.8125 C 103.382812 -60.800781 104.609375 -54.40625 104.609375 -47.625 C 104.609375 -40.75 103.382812 -34.328125 100.9375 -28.359375 C 98.5 -22.390625 95.085938 -17.140625 90.703125 -12.609375 C 86.316406 -8.085938 81.023438 -4.5625 74.828125 -2.03125 C 68.628906 0.5 61.78125 1.765625 54.28125 1.765625 Z M 54.28125 -17.640625 C 58.257812 -17.640625 61.941406 -18.382812 65.328125 -19.875 C 68.722656 -21.363281 71.640625 -23.46875 74.078125 -26.1875 C 76.523438 -28.90625 78.425781 -32.09375 79.78125 -35.75 C 81.132812 -39.414062 81.8125 -43.375 81.8125 -47.625 C 81.8125 -51.875 81.132812 -55.804688 79.78125 -59.421875 C 78.425781 -63.046875 76.523438 -66.210938 74.078125 -68.921875 C 71.640625 -71.640625 68.722656 -73.742188 65.328125 -75.234375 C 61.941406 -76.734375 58.257812 -77.484375 54.28125 -77.484375 C 50.207031 -77.484375 46.492188 -76.734375 43.140625 -75.234375 C 39.796875 -73.742188 36.878906 -71.640625 34.390625 -68.921875 C 31.910156 -66.210938 30.015625 -63.023438 28.703125 -59.359375 C 27.390625 -55.703125 26.734375 -51.789062 26.734375 -47.625 C 26.734375 -43.375 27.390625 -39.414062 28.703125 -35.75 C 30.015625 -32.09375 31.910156 -28.90625 34.390625 -26.1875 C 36.878906 -23.46875 39.796875 -21.363281 43.140625 -19.875 C 46.492188 -18.382812 50.207031 -17.640625 54.28125 -17.640625 Z M 54.28125 -17.640625 "/></g></g></g><g fill="#f62d93" fill-opacity="1"><g transform="translate(271.049555, 162.188998)"><g><path d="M 8.28125 0 L 8.28125 -94.984375 L 51.703125 -94.984375 C 58.117188 -94.984375 63.972656 -93.578125 69.265625 -90.765625 C 74.554688 -87.960938 78.757812 -84.070312 81.875 -79.09375 C 85 -74.125 86.5625 -68.382812 86.5625 -61.875 C 86.5625 -55.8125 85.113281 -50.359375 82.21875 -45.515625 C 79.332031 -40.679688 75.535156 -36.769531 70.828125 -33.78125 L 78.421875 -20.890625 C 78.878906 -20.265625 79.398438 -19.769531 79.984375 -19.40625 C 80.578125 -19.039062 81.367188 -18.859375 82.359375 -18.859375 L 90.78125 -18.859375 L 90.78125 0 L 77.484375 0 C 73.410156 0 69.695312 -0.96875 66.34375 -2.90625 C 63 -4.851562 60.378906 -7.410156 58.484375 -10.578125 L 48.3125 -28.625 C 47.675781 -28.625 47.015625 -28.625 46.328125 -28.625 C 45.648438 -28.625 44.953125 -28.625 44.234375 -28.625 L 31.078125 -28.625 L 31.078125 0 Z M 31.078125 -47.484375 L 49.125 -47.484375 C 51.738281 -47.484375 54.175781 -48.050781 56.4375 -49.1875 C 58.707031 -50.320312 60.492188 -51.953125 61.796875 -54.078125 C 63.109375 -56.203125 63.765625 -58.753906 63.765625 -61.734375 C 63.765625 -64.722656 63.085938 -67.28125 61.734375 -69.40625 C 60.378906 -71.53125 58.59375 -73.15625 56.375 -74.28125 C 54.15625 -75.414062 51.738281 -75.984375 49.125 -75.984375 L 31.078125 -75.984375 Z M 31.078125 -47.484375 "/></g></g></g><g fill="#f62d93" fill-opacity="1"><g transform="translate(363.862572, 162.188998)"><g><path d="M 8.28125 0 L 8.28125 -94.984375 L 43.15625 -94.984375 C 53.1875 -94.984375 61.890625 -92.945312 69.265625 -88.875 C 76.640625 -84.800781 82.382812 -79.191406 86.5 -72.046875 C 90.613281 -64.898438 92.671875 -56.710938 92.671875 -47.484375 C 92.671875 -38.265625 90.613281 -30.082031 86.5 -22.9375 C 82.382812 -15.789062 76.640625 -10.179688 69.265625 -6.109375 C 61.890625 -2.035156 53.1875 0 43.15625 0 Z M 31.078125 -19 L 42.609375 -19 C 47.847656 -19 52.523438 -20.148438 56.640625 -22.453125 C 60.765625 -24.765625 64 -28.046875 66.34375 -32.296875 C 68.695312 -36.546875 69.875 -41.609375 69.875 -47.484375 C 69.875 -53.367188 68.695312 -58.4375 66.34375 -62.6875 C 64 -66.9375 60.765625 -70.210938 56.640625 -72.515625 C 52.523438 -74.828125 47.847656 -75.984375 42.609375 -75.984375 L 31.078125 -75.984375 Z M 31.078125 -19 "/></g></g></g><g fill="#f62d93" fill-opacity="1"><g transform="translate(460.339255, 162.188998)"><g><path d="M 6.109375 0 L 6.109375 -19 L 22.53125 -19 L 22.53125 -75.984375 L 6.109375 -75.984375 L 6.109375 -94.984375 L 61.609375 -94.984375 L 61.609375 -75.984375 L 45.1875 -75.984375 L 45.1875 -19 L 61.609375 -19 L 61.609375 0 Z M 6.109375 0 "/></g></g></g><g fill="#f62d93" fill-opacity="1"><g transform="translate(528.049327, 162.188998)"><g><path d="M 8.8125 0 L 8.8125 -19 L 49.390625 -19 C 51.203125 -19 52.832031 -19.445312 54.28125 -20.34375 C 55.726562 -21.25 56.878906 -22.425781 57.734375 -23.875 C 58.597656 -25.320312 59.03125 -26.90625 59.03125 -28.625 C 59.03125 -30.4375 58.597656 -32.066406 57.734375 -33.515625 C 56.878906 -34.960938 55.726562 -36.140625 54.28125 -37.046875 C 52.832031 -37.953125 51.203125 -38.40625 49.390625 -38.40625 L 34.734375 -38.40625 C 29.210938 -38.40625 24.191406 -39.488281 19.671875 -41.65625 C 15.148438 -43.820312 11.554688 -47.007812 8.890625 -51.21875 C 6.222656 -55.425781 4.890625 -60.46875 4.890625 -66.34375 C 4.890625 -72.132812 6.15625 -77.15625 8.6875 -81.40625 C 11.21875 -85.664062 14.65625 -88.992188 19 -91.390625 C 23.34375 -93.785156 28.132812 -94.984375 33.375 -94.984375 L 75.3125 -94.984375 L 75.3125 -75.984375 L 35.953125 -75.984375 C 34.328125 -75.984375 32.832031 -75.578125 31.46875 -74.765625 C 30.113281 -73.953125 29.070312 -72.863281 28.34375 -71.5 C 27.625 -70.144531 27.265625 -68.65625 27.265625 -67.03125 C 27.265625 -65.40625 27.625 -63.9375 28.34375 -62.625 C 29.070312 -61.3125 30.113281 -60.242188 31.46875 -59.421875 C 32.832031 -58.609375 34.328125 -58.203125 35.953125 -58.203125 L 51.296875 -58.203125 C 57.347656 -58.203125 62.613281 -57.050781 67.09375 -54.75 C 71.570312 -52.445312 75.054688 -49.234375 77.546875 -45.109375 C 80.035156 -40.992188 81.28125 -36.179688 81.28125 -30.671875 C 81.28125 -24.148438 79.988281 -18.601562 77.40625 -14.03125 C 74.832031 -9.46875 71.375 -5.988281 67.03125 -3.59375 C 62.6875 -1.195312 57.890625 0 52.640625 0 Z M 8.8125 0 "/></g></g></g><g fill="#f62d93" fill-opacity="1"><g transform="translate(613.670697, 162.188998)"><g><path d="M 43.015625 27.546875 L 43.015625 -2.03125 L 65.53125 -2.03125 L 65.53125 27.546875 Z M 54.28125 1.765625 C 46.675781 1.765625 39.796875 0.5 33.640625 -2.03125 C 27.492188 -4.5625 22.203125 -8.085938 17.765625 -12.609375 C 13.335938 -17.140625 9.925781 -22.390625 7.53125 -28.359375 C 5.132812 -34.328125 3.9375 -40.75 3.9375 -47.625 C 3.9375 -54.5 5.132812 -60.921875 7.53125 -66.890625 C 9.925781 -72.859375 13.316406 -78.082031 17.703125 -82.5625 C 22.085938 -87.039062 27.378906 -90.523438 33.578125 -93.015625 C 39.773438 -95.503906 46.675781 -96.75 54.28125 -96.75 C 61.78125 -96.75 68.628906 -95.503906 74.828125 -93.015625 C 81.023438 -90.523438 86.316406 -87.039062 90.703125 -82.5625 C 95.085938 -78.082031 98.5 -72.832031 100.9375 -66.8125 C 103.382812 -60.800781 104.609375 -54.40625 104.609375 -47.625 C 104.609375 -40.75 103.382812 -34.328125 100.9375 -28.359375 C 98.5 -22.390625 95.085938 -17.140625 90.703125 -12.609375 C 86.316406 -8.085938 81.023438 -4.5625 74.828125 -2.03125 C 68.628906 0.5 61.78125 1.765625 54.28125 1.765625 Z M 54.28125 -17.640625 C 58.257812 -17.640625 61.941406 -18.382812 65.328125 -19.875 C 68.722656 -21.363281 71.640625 -23.46875 74.078125 -26.1875 C 76.523438 -28.90625 78.425781 -32.09375 79.78125 -35.75 C 81.132812 -39.414062 81.8125 -43.375 81.8125 -47.625 C 81.8125 -51.875 81.132812 -55.804688 79.78125 -59.421875 C 78.425781 -63.046875 76.523438 -66.210938 74.078125 -68.921875 C 71.640625 -71.640625 68.722656 -73.742188 65.328125 -75.234375 C 61.941406 -76.734375 58.257812 -77.484375 54.28125 -77.484375 C 50.207031 -77.484375 46.492188 -76.734375 43.140625 -75.234375 C 39.796875 -73.742188 36.878906 -71.640625 34.390625 -68.921875 C 31.910156 -66.210938 30.015625 -63.023438 28.703125 -59.359375 C 27.390625 -55.703125 26.734375 -51.789062 26.734375 -47.625 C 26.734375 -43.375 27.390625 -39.414062 28.703125 -35.75 C 30.015625 -32.09375 31.910156 -28.90625 34.390625 -26.1875 C 36.878906 -23.46875 39.796875 -21.363281 43.140625 -19.875 C 46.492188 -18.382812 50.207031 -17.640625 54.28125 -17.640625 Z M 54.28125 -17.640625 "/></g></g></g><g fill="#f62d93" fill-opacity="1"><g transform="translate(722.088254, 162.188998)"><g><path d="M 48.3125 1.625 C 40.4375 1.625 33.445312 0.0390625 27.34375 -3.125 C 21.238281 -6.289062 16.46875 -10.8125 13.03125 -16.6875 C 9.59375 -22.570312 7.875 -29.582031 7.875 -37.71875 L 7.875 -94.984375 L 30.390625 -94.984375 L 30.390625 -36.5 C 30.390625 -32.96875 31.113281 -29.773438 32.5625 -26.921875 C 34.007812 -24.078125 36.085938 -21.816406 38.796875 -20.140625 C 41.515625 -18.472656 44.6875 -17.640625 48.3125 -17.640625 C 52.019531 -17.640625 55.207031 -18.472656 57.875 -20.140625 C 60.539062 -21.816406 62.597656 -24.078125 64.046875 -26.921875 C 65.492188 -29.773438 66.21875 -32.96875 66.21875 -36.5 L 66.21875 -94.984375 L 88.734375 -94.984375 L 88.734375 -37.71875 C 88.734375 -29.582031 86.992188 -22.570312 83.515625 -16.6875 C 80.035156 -10.8125 75.265625 -6.289062 69.203125 -3.125 C 63.140625 0.0390625 56.175781 1.625 48.3125 1.625 Z M 48.3125 1.625 "/></g></g></g><g fill="#f62d93" fill-opacity="1"><g transform="translate(818.56496, 162.188998)"><g><path d="M 33.65625 0 C 28.3125 0 23.46875 -1.242188 19.125 -3.734375 C 14.789062 -6.222656 11.332031 -9.566406 8.75 -13.765625 C 6.175781 -17.972656 4.890625 -22.75 4.890625 -28.09375 C 4.890625 -32.070312 5.769531 -35.800781 7.53125 -39.28125 C 9.289062 -42.757812 11.664062 -45.769531 14.65625 -48.3125 C 11.757812 -50.75 9.472656 -53.640625 7.796875 -56.984375 C 6.128906 -60.335938 5.296875 -63.867188 5.296875 -67.578125 C 5.296875 -72.816406 6.5625 -77.492188 9.09375 -81.609375 C 11.625 -85.734375 15.015625 -88.992188 19.265625 -91.390625 C 23.515625 -93.785156 28.21875 -94.984375 33.375 -94.984375 L 73.40625 -94.984375 L 73.40625 -75.984375 L 36.90625 -75.984375 C 35.1875 -75.984375 33.601562 -75.578125 32.15625 -74.765625 C 30.707031 -73.953125 29.550781 -72.863281 28.6875 -71.5 C 27.832031 -70.144531 27.40625 -68.566406 27.40625 -66.765625 C 27.40625 -65.046875 27.832031 -63.484375 28.6875 -62.078125 C 29.550781 -60.671875 30.707031 -59.582031 32.15625 -58.8125 C 33.601562 -58.050781 35.1875 -57.671875 36.90625 -57.671875 L 68.796875 -57.671875 L 68.796875 -38.671875 L 37.578125 -38.671875 C 35.679688 -38.671875 33.960938 -38.21875 32.421875 -37.3125 C 30.890625 -36.40625 29.671875 -35.226562 28.765625 -33.78125 C 27.859375 -32.332031 27.40625 -30.660156 27.40625 -28.765625 C 27.40625 -26.953125 27.859375 -25.300781 28.765625 -23.8125 C 29.671875 -22.320312 30.890625 -21.164062 32.421875 -20.34375 C 33.960938 -19.53125 35.679688 -19.125 37.578125 -19.125 L 73.40625 -19.125 L 73.40625 0 Z M 33.65625 0 "/></g></g></g><g clip-path="url(#3d715cee85)"><path fill="#f62d93" d="M 990.65625 121.300781 C 990.710938 121.0625 990.773438 120.828125 990.820312 120.585938 L 990.949219 119.863281 C 990.988281 119.621094 991.039062 119.382812 991.078125 119.140625 L 991.167969 118.410156 L 1011.105469 120.929688 L 1010.949219 122.144531 C 1010.882812 122.546875 1010.808594 122.949219 1010.738281 123.351562 L 1010.519531 124.558594 C 1010.441406 124.960938 1010.34375 125.355469 1010.253906 125.753906 Z M 990.65625 121.300781 " fill-opacity="1" fill-rule="nonzero"/></g><path fill="#f62d93" d="M 988.445312 127.660156 L 989.050781 126.324219 L 989.589844 124.960938 L 1008.457031 131.875 L 1007.558594 134.160156 L 1006.546875 136.394531 Z M 988.445312 127.660156 " fill-opacity="1" fill-rule="nonzero"/><path fill="#f62d93" d="M 984.839844 133.367188 C 985.140625 132.980469 985.457031 132.605469 985.730469 132.195312 C 986.011719 131.796875 986.308594 131.402344 986.5625 130.984375 L 1003.410156 141.9375 C 1002.980469 142.632812 1002.496094 143.292969 1002.023438 143.957031 C 1001.5625 144.632812 1001.046875 145.265625 1000.542969 145.910156 Z M 984.839844 133.367188 " fill-opacity="1" fill-rule="nonzero"/><path fill="#f62d93" d="M 980.058594 138.148438 C 980.453125 137.859375 980.8125 137.523438 981.1875 137.203125 C 981.570312 136.894531 981.910156 136.539062 982.269531 136.203125 L 996.269531 150.621094 C 995.675781 151.179688 995.097656 151.757812 994.472656 152.28125 C 993.855469 152.8125 993.25 153.359375 992.597656 153.855469 Z M 980.058594 138.148438 " fill-opacity="1" fill-rule="nonzero"/><path fill="#f62d93" d="M 974.351562 141.753906 L 975.65625 141.085938 L 976.929688 140.351562 L 987.386719 157.511719 C 986.683594 157.925781 985.976562 158.332031 985.265625 158.734375 C 984.539062 159.113281 983.8125 159.484375 983.082031 159.855469 Z M 974.351562 141.753906 " fill-opacity="1" fill-rule="nonzero"/><g clip-path="url(#b1377f38de)"><path fill="#f62d93" d="M 967.992188 143.96875 L 968.707031 143.804688 C 968.945312 143.75 969.175781 143.671875 969.414062 143.609375 L 970.117188 143.410156 C 970.355469 143.347656 970.582031 143.253906 970.816406 143.179688 L 977.171875 162.242188 C 976.78125 162.371094 976.398438 162.511719 976.003906 162.625 L 974.824219 162.960938 C 974.429688 163.070312 974.039062 163.191406 973.640625 163.285156 L 972.445312 163.5625 Z M 967.992188 143.96875 " fill-opacity="1" fill-rule="nonzero"/></g><g clip-path="url(#46311a8b28)"><path fill="#f62d93" d="M 961.273438 144.730469 L 962.753906 144.691406 L 964.222656 144.582031 L 966.15625 164.585938 C 965.34375 164.648438 964.53125 164.71875 963.71875 164.765625 L 961.273438 164.824219 Z M 961.273438 144.730469 " fill-opacity="1" fill-rule="nonzero"/></g><g clip-path="url(#374d1c36c4)"><path fill="#f62d93" d="M 954.558594 143.96875 C 954.796875 144.019531 955.035156 144.085938 955.273438 144.132812 L 955.996094 144.257812 C 956.238281 144.300781 956.480469 144.347656 956.71875 144.386719 L 957.449219 144.476562 L 954.933594 164.414062 L 953.71875 164.257812 C 953.3125 164.195312 952.910156 164.121094 952.507812 164.050781 L 951.300781 163.832031 C 950.902344 163.753906 950.503906 163.652344 950.105469 163.5625 Z M 954.558594 143.96875 " fill-opacity="1" fill-rule="nonzero"/></g><path fill="#f62d93" d="M 948.199219 141.753906 L 949.535156 142.359375 L 950.902344 142.898438 L 943.984375 161.769531 L 941.703125 160.867188 L 939.46875 159.855469 Z M 948.199219 141.753906 " fill-opacity="1" fill-rule="nonzero"/><path fill="#f62d93" d="M 942.492188 138.148438 C 942.878906 138.449219 943.253906 138.769531 943.664062 139.039062 C 944.066406 139.324219 944.457031 139.621094 944.878906 139.871094 L 933.921875 156.71875 C 933.226562 156.289062 932.566406 155.808594 931.902344 155.335938 C 931.230469 154.871094 930.59375 154.359375 929.953125 153.855469 Z M 942.492188 138.148438 " fill-opacity="1" fill-rule="nonzero"/><path fill="#f62d93" d="M 937.710938 133.367188 C 938 133.765625 938.339844 134.121094 938.65625 134.496094 C 938.964844 134.878906 939.324219 135.21875 939.65625 135.578125 L 925.242188 149.582031 C 924.679688 148.988281 924.105469 148.410156 923.578125 147.785156 C 923.046875 147.164062 922.5 146.558594 922.007812 145.910156 Z M 937.710938 133.367188 " fill-opacity="1" fill-rule="nonzero"/><path fill="#f62d93" d="M 934.105469 127.660156 L 934.777344 128.96875 L 935.511719 130.242188 L 918.347656 140.699219 C 917.933594 139.996094 917.53125 139.285156 917.125 138.574219 C 916.746094 137.851562 916.375 137.121094 916.003906 136.394531 Z M 934.105469 127.660156 " fill-opacity="1" fill-rule="nonzero"/><path fill="#f62d93" d="M 931.890625 121.300781 L 932.054688 122.015625 C 932.109375 122.253906 932.1875 122.488281 932.253906 122.722656 L 932.449219 123.429688 C 932.515625 123.664062 932.605469 123.890625 932.679688 124.125 L 913.617188 130.480469 C 913.488281 130.09375 913.347656 129.707031 913.234375 129.3125 L 912.898438 128.132812 C 912.789062 127.738281 912.667969 127.347656 912.574219 126.949219 L 912.296875 125.753906 Z M 931.890625 121.300781 " fill-opacity="1" fill-rule="nonzero"/><g clip-path="url(#8f705a0642)"><path fill="#f62d93" d="M 931.132812 114.585938 L 931.167969 116.0625 L 931.277344 117.535156 L 911.273438 119.46875 C 911.210938 118.65625 911.140625 117.839844 911.097656 117.027344 L 911.035156 114.585938 Z M 931.132812 114.585938 " fill-opacity="1" fill-rule="nonzero"/></g><g clip-path="url(#69a42eaeef)"><path fill="#f62d93" d="M 931.890625 107.871094 C 931.839844 108.109375 931.773438 108.34375 931.730469 108.585938 L 931.601562 109.308594 C 931.5625 109.546875 931.511719 109.789062 931.472656 110.03125 L 931.382812 110.761719 L 911.445312 108.242188 L 911.601562 107.027344 C 911.664062 106.625 911.742188 106.222656 911.8125 105.820312 L 912.03125 104.613281 C 912.109375 104.210938 912.207031 103.8125 912.296875 103.414062 Z M 931.890625 107.871094 " fill-opacity="1" fill-rule="nonzero"/></g><path fill="#f62d93" d="M 934.105469 101.507812 L 933.5 102.847656 L 932.960938 104.210938 L 914.09375 97.296875 L 914.992188 95.011719 L 916.003906 92.777344 Z M 934.105469 101.507812 " fill-opacity="1" fill-rule="nonzero"/><path fill="#f62d93" d="M 937.710938 95.800781 C 937.410156 96.1875 937.09375 96.566406 936.820312 96.972656 C 936.539062 97.375 936.242188 97.765625 935.988281 98.1875 L 919.140625 87.230469 C 919.570312 86.539062 920.050781 85.878906 920.527344 85.210938 C 920.988281 84.539062 921.503906 83.902344 922.007812 83.261719 Z M 937.710938 95.800781 " fill-opacity="1" fill-rule="nonzero"/><path fill="#f62d93" d="M 942.492188 91.019531 C 942.097656 91.3125 941.738281 91.648438 941.363281 91.964844 C 940.980469 92.277344 940.640625 92.632812 940.28125 92.964844 L 926.28125 78.550781 C 926.871094 77.992188 927.449219 77.414062 928.078125 76.890625 C 928.695312 76.355469 929.300781 75.8125 929.953125 75.316406 Z M 942.492188 91.019531 " fill-opacity="1" fill-rule="nonzero"/><path fill="#f62d93" d="M 948.199219 87.414062 L 946.890625 88.085938 L 945.621094 88.820312 L 935.160156 71.660156 C 935.867188 71.242188 936.574219 70.839844 937.285156 70.433594 C 938.007812 70.054688 938.738281 69.683594 939.46875 69.316406 Z M 948.199219 87.414062 " fill-opacity="1" fill-rule="nonzero"/><path fill="#f62d93" d="M 954.558594 85.203125 L 953.84375 85.363281 C 953.605469 85.417969 953.375 85.5 953.136719 85.5625 L 952.433594 85.761719 C 952.195312 85.824219 951.96875 85.917969 951.734375 85.992188 L 945.378906 66.925781 C 945.769531 66.800781 946.152344 66.65625 946.546875 66.546875 L 947.726562 66.207031 C 948.121094 66.101562 948.511719 65.980469 948.910156 65.882812 L 950.105469 65.605469 Z M 954.558594 85.203125 " fill-opacity="1" fill-rule="nonzero"/><g clip-path="url(#426eb91353)"><path fill="#f62d93" d="M 961.273438 84.441406 L 959.796875 84.480469 L 958.328125 84.585938 L 956.394531 64.585938 C 957.207031 64.523438 958.019531 64.453125 958.832031 64.40625 L 961.273438 64.34375 Z M 961.273438 84.441406 " fill-opacity="1" fill-rule="nonzero"/></g><g clip-path="url(#111ddf1b8a)"><path fill="#f62d93" d="M 967.992188 85.203125 C 967.753906 85.148438 967.515625 85.085938 967.277344 85.039062 L 966.550781 84.914062 C 966.3125 84.871094 966.070312 84.820312 965.828125 84.78125 L 965.101562 84.691406 L 967.617188 64.753906 L 968.832031 64.914062 C 969.238281 64.976562 969.640625 65.050781 970.042969 65.121094 L 971.25 65.339844 C 971.648438 65.417969 972.046875 65.515625 972.445312 65.605469 Z M 967.992188 85.203125 " fill-opacity="1" fill-rule="nonzero"/></g><path fill="#f62d93" d="M 974.351562 87.414062 L 973.015625 86.808594 L 971.648438 86.269531 L 978.566406 67.402344 L 980.847656 68.304688 L 983.082031 69.316406 Z M 974.351562 87.414062 " fill-opacity="1" fill-rule="nonzero"/><path fill="#f62d93" d="M 980.058594 91.019531 C 979.671875 90.71875 979.296875 90.402344 978.886719 90.128906 C 978.484375 89.847656 978.09375 89.550781 977.671875 89.296875 L 988.628906 72.449219 C 989.324219 72.882812 989.984375 73.363281 990.648438 73.835938 C 991.320312 74.300781 991.957031 74.8125 992.597656 75.316406 Z M 980.058594 91.019531 " fill-opacity="1" fill-rule="nonzero"/><path fill="#f62d93" d="M 984.839844 95.800781 C 984.546875 95.40625 984.210938 95.046875 983.894531 94.671875 C 983.585938 94.292969 983.226562 93.953125 982.894531 93.59375 L 997.308594 79.589844 C 997.871094 80.183594 998.445312 80.761719 998.972656 81.386719 C 999.503906 82.003906 1000.050781 82.613281 1000.542969 83.261719 Z M 984.839844 95.800781 " fill-opacity="1" fill-rule="nonzero"/><path fill="#f62d93" d="M 988.445312 101.507812 L 987.773438 100.203125 L 987.039062 98.929688 L 1004.203125 88.472656 C 1004.617188 89.175781 1005.019531 89.886719 1005.425781 90.59375 C 1005.804688 91.320312 1006.175781 92.046875 1006.546875 92.777344 Z M 988.445312 101.507812 " fill-opacity="1" fill-rule="nonzero"/><g clip-path="url(#acf78cc902)"><path fill="#f62d93" d="M 990.65625 107.871094 L 990.496094 107.152344 C 990.441406 106.914062 990.363281 106.683594 990.296875 106.449219 L 990.101562 105.742188 C 990.035156 105.503906 989.945312 105.277344 989.871094 105.046875 L 1008.933594 98.691406 C 1009.0625 99.078125 1009.203125 99.460938 1009.316406 99.855469 L 1009.652344 101.035156 C 1009.761719 101.429688 1009.882812 101.820312 1009.976562 102.21875 L 1010.253906 103.414062 Z M 990.65625 107.871094 " fill-opacity="1" fill-rule="nonzero"/></g><g clip-path="url(#c457087a14)"><path fill="#f62d93" d="M 991.417969 114.585938 L 991.382812 113.105469 L 991.273438 111.636719 L 1011.277344 109.703125 C 1011.339844 110.515625 1011.40625 111.328125 1011.453125 112.144531 L 1011.515625 114.585938 Z M 991.417969 114.585938 " fill-opacity="1" fill-rule="nonzero"/></g><g fill="#f62d93" fill-opacity="0.4"><g transform="translate(367.93227, 233.759161)"><g><path d="M 12.53125 0.765625 C 8.488281 0.765625 4.78125 -0.0195312 1.40625 -1.59375 L 2.46875 -9.53125 C 3.84375 -8.789062 5.351562 -8.203125 7 -7.765625 C 8.644531 -7.335938 10.117188 -7.125 11.421875 -7.125 C 12.910156 -7.125 14.125 -7.4375 15.0625 -8.0625 C 16 -8.6875 16.46875 -9.742188 16.46875 -11.234375 C 16.46875 -12.535156 15.96875 -13.664062 14.96875 -14.625 C 13.96875 -15.582031 12.644531 -16.570312 11 -17.59375 C 9.28125 -18.570312 7.710938 -19.648438 6.296875 -20.828125 C 4.878906 -22.003906 3.757812 -23.347656 2.9375 -24.859375 C 2.113281 -26.367188 1.703125 -28.101562 1.703125 -30.0625 C 1.703125 -32.613281 2.25 -34.757812 3.34375 -36.5 C 4.445312 -38.25 5.945312 -39.582031 7.84375 -40.5 C 9.75 -41.425781 11.921875 -41.890625 14.359375 -41.890625 C 15.960938 -41.890625 17.617188 -41.710938 19.328125 -41.359375 C 21.035156 -41.015625 22.691406 -40.507812 24.296875 -39.84375 L 23.1875 -31.890625 C 20.28125 -33.265625 17.707031 -33.953125 15.46875 -33.953125 C 14.132812 -33.953125 13.046875 -33.65625 12.203125 -33.0625 C 11.359375 -32.476562 10.9375 -31.5 10.9375 -30.125 C 10.9375 -28.90625 11.394531 -27.804688 12.3125 -26.828125 C 13.238281 -25.847656 14.546875 -24.847656 16.234375 -23.828125 C 18.046875 -22.890625 19.65625 -21.820312 21.0625 -20.625 C 22.476562 -19.425781 23.609375 -18.039062 24.453125 -16.46875 C 25.296875 -14.90625 25.71875 -13.082031 25.71875 -11 C 25.71875 -8.53125 25.144531 -6.410156 24 -4.640625 C 22.863281 -2.878906 21.304688 -1.535156 19.328125 -0.609375 C 17.347656 0.304688 15.082031 0.765625 12.53125 0.765625 Z M 12.53125 0.765625 "/></g></g></g><g fill="#f62d93" fill-opacity="0.4"><g transform="translate(417.241786, 233.759161)"><g><path d="M 16.125 -41.890625 C 20.363281 -41.890625 23.664062 -40.679688 26.03125 -38.265625 C 28.40625 -35.859375 29.59375 -32.554688 29.59375 -28.359375 L 29.59375 0 L 20.890625 0 L 20.890625 -27.953125 C 20.890625 -29.910156 20.476562 -31.390625 19.65625 -32.390625 C 18.832031 -33.390625 17.675781 -33.890625 16.1875 -33.890625 C 14.695312 -33.890625 13.535156 -33.390625 12.703125 -32.390625 C 11.878906 -31.390625 11.46875 -29.910156 11.46875 -27.953125 L 11.46875 0 L 2.703125 0 L 2.703125 -28.359375 C 2.703125 -32.554688 3.890625 -35.859375 6.265625 -38.265625 C 8.640625 -40.679688 11.925781 -41.890625 16.125 -41.890625 Z M 16.125 -41.890625 "/></g></g></g><g fill="#f62d93" fill-opacity="0.4"><g transform="translate(471.90541, 233.759161)"><g><path d="M 11.46875 0 L 2.703125 0 L 2.703125 -26.359375 C 2.703125 -31.421875 3.9375 -35.273438 6.40625 -37.921875 C 8.882812 -40.566406 12.320312 -41.890625 16.71875 -41.890625 C 21.03125 -41.890625 24.441406 -40.585938 26.953125 -37.984375 C 29.460938 -35.378906 30.71875 -31.503906 30.71875 -26.359375 L 30.71875 0 L 22 0 L 22 -11.1875 L 11.46875 -11.1875 Z M 11.46875 -26.484375 L 11.46875 -18.421875 L 22 -18.421875 L 22 -26.484375 C 22 -29.109375 21.53125 -31.007812 20.59375 -32.1875 C 19.65625 -33.363281 18.363281 -33.953125 16.71875 -33.953125 C 15.101562 -33.953125 13.820312 -33.375 12.875 -32.21875 C 11.9375 -31.0625 11.46875 -29.148438 11.46875 -26.484375 Z M 11.46875 -26.484375 "/></g></g></g><g fill="#f62d93" fill-opacity="0.4"><g transform="translate(527.686924, 233.759161)"><g><path d="M 18.828125 0.703125 C 15.578125 0.703125 12.691406 -0.0976562 10.171875 -1.703125 C 7.660156 -3.316406 5.691406 -5.703125 4.265625 -8.859375 C 2.835938 -12.015625 2.125 -15.925781 2.125 -20.59375 C 2.125 -25.0625 2.789062 -28.882812 4.125 -32.0625 C 5.457031 -35.25 7.347656 -37.675781 9.796875 -39.34375 C 12.242188 -41.007812 15.15625 -41.84375 18.53125 -41.84375 C 19.945312 -41.84375 21.425781 -41.644531 22.96875 -41.25 C 24.519531 -40.851562 26.082031 -40.222656 27.65625 -39.359375 L 25.484375 -31.78125 C 23.441406 -33.03125 21.320312 -33.65625 19.125 -33.65625 C 16.8125 -33.65625 14.957031 -32.65625 13.5625 -30.65625 C 12.164062 -28.65625 11.46875 -25.320312 11.46875 -20.65625 C 11.46875 -16.1875 12.144531 -12.878906 13.5 -10.734375 C 14.851562 -8.597656 16.726562 -7.53125 19.125 -7.53125 C 21.59375 -7.53125 23.789062 -8.175781 25.71875 -9.46875 L 27.953125 -1.765625 C 26.816406 -1.015625 25.453125 -0.414062 23.859375 0.03125 C 22.273438 0.476562 20.597656 0.703125 18.828125 0.703125 Z M 18.828125 0.703125 "/></g></g></g><g fill="#f62d93" fill-opacity="0.4"><g transform="translate(579.173393, 233.759161)"><g><path d="M 20.296875 -20.953125 L 32.125 0 L 22.1875 0 L 12.125 -18.421875 L 12.125 0 L 3.359375 0 L 3.359375 -41.1875 L 12.1875 -41.1875 L 12.1875 -23.484375 L 21.828125 -41.1875 L 31.71875 -41.1875 Z M 20.296875 -20.953125 "/></g></g></g><g fill="#f62d93" fill-opacity="0.4"><g transform="translate(634.30771, 233.759161)"><g><path d="M 12.53125 0.765625 C 8.488281 0.765625 4.78125 -0.0195312 1.40625 -1.59375 L 2.46875 -9.53125 C 3.84375 -8.789062 5.351562 -8.203125 7 -7.765625 C 8.644531 -7.335938 10.117188 -7.125 11.421875 -7.125 C 12.910156 -7.125 14.125 -7.4375 15.0625 -8.0625 C 16 -8.6875 16.46875 -9.742188 16.46875 -11.234375 C 16.46875 -12.535156 15.96875 -13.664062 14.96875 -14.625 C 13.96875 -15.582031 12.644531 -16.570312 11 -17.59375 C 9.28125 -18.570312 7.710938 -19.648438 6.296875 -20.828125 C 4.878906 -22.003906 3.757812 -23.347656 2.9375 -24.859375 C 2.113281 -26.367188 1.703125 -28.101562 1.703125 -30.0625 C 1.703125 -32.613281 2.25 -34.757812 3.34375 -36.5 C 4.445312 -38.25 5.945312 -39.582031 7.84375 -40.5 C 9.75 -41.425781 11.921875 -41.890625 14.359375 -41.890625 C 15.960938 -41.890625 17.617188 -41.710938 19.328125 -41.359375 C 21.035156 -41.015625 22.691406 -40.507812 24.296875 -39.84375 L 23.1875 -31.890625 C 20.28125 -33.265625 17.707031 -33.953125 15.46875 -33.953125 C 14.132812 -33.953125 13.046875 -33.65625 12.203125 -33.0625 C 11.359375 -32.476562 10.9375 -31.5 10.9375 -30.125 C 10.9375 -28.90625 11.394531 -27.804688 12.3125 -26.828125 C 13.238281 -25.847656 14.546875 -24.847656 16.234375 -23.828125 C 18.046875 -22.890625 19.65625 -21.820312 21.0625 -20.625 C 22.476562 -19.425781 23.609375 -18.039062 24.453125 -16.46875 C 25.296875 -14.90625 25.71875 -13.082031 25.71875 -11 C 25.71875 -8.53125 25.144531 -6.410156 24 -4.640625 C 22.863281 -2.878906 21.304688 -1.535156 19.328125 -0.609375 C 17.347656 0.304688 15.082031 0.765625 12.53125 0.765625 Z M 12.53125 0.765625 "/></g></g></g><g fill="#f62d93" fill-opacity="1"><g transform="translate(365.331504, 231.158388)"><g><path d="M 12.53125 0.765625 C 8.488281 0.765625 4.78125 -0.0195312 1.40625 -1.59375 L 2.46875 -9.53125 C 3.84375 -8.789062 5.351562 -8.203125 7 -7.765625 C 8.644531 -7.335938 10.117188 -7.125 11.421875 -7.125 C 12.910156 -7.125 14.125 -7.4375 15.0625 -8.0625 C 16 -8.6875 16.46875 -9.742188 16.46875 -11.234375 C 16.46875 -12.535156 15.96875 -13.664062 14.96875 -14.625 C 13.96875 -15.582031 12.644531 -16.570312 11 -17.59375 C 9.28125 -18.570312 7.710938 -19.648438 6.296875 -20.828125 C 4.878906 -22.003906 3.757812 -23.347656 2.9375 -24.859375 C 2.113281 -26.367188 1.703125 -28.101562 1.703125 -30.0625 C 1.703125 -32.613281 2.25 -34.757812 3.34375 -36.5 C 4.445312 -38.25 5.945312 -39.582031 7.84375 -40.5 C 9.75 -41.425781 11.921875 -41.890625 14.359375 -41.890625 C 15.960938 -41.890625 17.617188 -41.710938 19.328125 -41.359375 C 21.035156 -41.015625 22.691406 -40.507812 24.296875 -39.84375 L 23.1875 -31.890625 C 20.28125 -33.265625 17.707031 -33.953125 15.46875 -33.953125 C 14.132812 -33.953125 13.046875 -33.65625 12.203125 -33.0625 C 11.359375 -32.476562 10.9375 -31.5 10.9375 -30.125 C 10.9375 -28.90625 11.394531 -27.804688 12.3125 -26.828125 C 13.238281 -25.847656 14.546875 -24.847656 16.234375 -23.828125 C 18.046875 -22.890625 19.65625 -21.820312 21.0625 -20.625 C 22.476562 -19.425781 23.609375 -18.039062 24.453125 -16.46875 C 25.296875 -14.90625 25.71875 -13.082031 25.71875 -11 C 25.71875 -8.53125 25.144531 -6.410156 24 -4.640625 C 22.863281 -2.878906 21.304688 -1.535156 19.328125 -0.609375 C 17.347656 0.304688 15.082031 0.765625 12.53125 0.765625 Z M 12.53125 0.765625 "/></g></g></g><g fill="#f62d93" fill-opacity="1"><g transform="translate(414.64102, 231.158388)"><g><path d="M 16.125 -41.890625 C 20.363281 -41.890625 23.664062 -40.679688 26.03125 -38.265625 C 28.40625 -35.859375 29.59375 -32.554688 29.59375 -28.359375 L 29.59375 0 L 20.890625 0 L 20.890625 -27.953125 C 20.890625 -29.910156 20.476562 -31.390625 19.65625 -32.390625 C 18.832031 -33.390625 17.675781 -33.890625 16.1875 -33.890625 C 14.695312 -33.890625 13.535156 -33.390625 12.703125 -32.390625 C 11.878906 -31.390625 11.46875 -29.910156 11.46875 -27.953125 L 11.46875 0 L 2.703125 0 L 2.703125 -28.359375 C 2.703125 -32.554688 3.890625 -35.859375 6.265625 -38.265625 C 8.640625 -40.679688 11.925781 -41.890625 16.125 -41.890625 Z M 16.125 -41.890625 "/></g></g></g><g fill="#f62d93" fill-opacity="1"><g transform="translate(469.304644, 231.158388)"><g><path d="M 11.46875 0 L 2.703125 0 L 2.703125 -26.359375 C 2.703125 -31.421875 3.9375 -35.273438 6.40625 -37.921875 C 8.882812 -40.566406 12.320312 -41.890625 16.71875 -41.890625 C 21.03125 -41.890625 24.441406 -40.585938 26.953125 -37.984375 C 29.460938 -35.378906 30.71875 -31.503906 30.71875 -26.359375 L 30.71875 0 L 22 0 L 22 -11.1875 L 11.46875 -11.1875 Z M 11.46875 -26.484375 L 11.46875 -18.421875 L 22 -18.421875 L 22 -26.484375 C 22 -29.109375 21.53125 -31.007812 20.59375 -32.1875 C 19.65625 -33.363281 18.363281 -33.953125 16.71875 -33.953125 C 15.101562 -33.953125 13.820312 -33.375 12.875 -32.21875 C 11.9375 -31.0625 11.46875 -29.148438 11.46875 -26.484375 Z M 11.46875 -26.484375 "/></g></g></g><g fill="#f62d93" fill-opacity="1"><g transform="translate(525.086158, 231.158388)"><g><path d="M 18.828125 0.703125 C 15.578125 0.703125 12.691406 -0.0976562 10.171875 -1.703125 C 7.660156 -3.316406 5.691406 -5.703125 4.265625 -8.859375 C 2.835938 -12.015625 2.125 -15.925781 2.125 -20.59375 C 2.125 -25.0625 2.789062 -28.882812 4.125 -32.0625 C 5.457031 -35.25 7.347656 -37.675781 9.796875 -39.34375 C 12.242188 -41.007812 15.15625 -41.84375 18.53125 -41.84375 C 19.945312 -41.84375 21.425781 -41.644531 22.96875 -41.25 C 24.519531 -40.851562 26.082031 -40.222656 27.65625 -39.359375 L 25.484375 -31.78125 C 23.441406 -33.03125 21.320312 -33.65625 19.125 -33.65625 C 16.8125 -33.65625 14.957031 -32.65625 13.5625 -30.65625 C 12.164062 -28.65625 11.46875 -25.320312 11.46875 -20.65625 C 11.46875 -16.1875 12.144531 -12.878906 13.5 -10.734375 C 14.851562 -8.597656 16.726562 -7.53125 19.125 -7.53125 C 21.59375 -7.53125 23.789062 -8.175781 25.71875 -9.46875 L 27.953125 -1.765625 C 26.816406 -1.015625 25.453125 -0.414062 23.859375 0.03125 C 22.273438 0.476562 20.597656 0.703125 18.828125 0.703125 Z M 18.828125 0.703125 "/></g></g></g><g fill="#f62d93" fill-opacity="1"><g transform="translate(576.572627, 231.158388)"><g><path d="M 20.296875 -20.953125 L 32.125 0 L 22.1875 0 L 12.125 -18.421875 L 12.125 0 L 3.359375 0 L 3.359375 -41.1875 L 12.1875 -41.1875 L 12.1875 -23.484375 L 21.828125 -41.1875 L 31.71875 -41.1875 Z M 20.296875 -20.953125 "/></g></g></g><g fill="#f62d93" fill-opacity="1"><g transform="translate(631.706944, 231.158388)"><g><path d="M 12.53125 0.765625 C 8.488281 0.765625 4.78125 -0.0195312 1.40625 -1.59375 L 2.46875 -9.53125 C 3.84375 -8.789062 5.351562 -8.203125 7 -7.765625 C 8.644531 -7.335938 10.117188 -7.125 11.421875 -7.125 C 12.910156 -7.125 14.125 -7.4375 15.0625 -8.0625 C 16 -8.6875 16.46875 -9.742188 16.46875 -11.234375 C 16.46875 -12.535156 15.96875 -13.664062 14.96875 -14.625 C 13.96875 -15.582031 12.644531 -16.570312 11 -17.59375 C 9.28125 -18.570312 7.710938 -19.648438 6.296875 -20.828125 C 4.878906 -22.003906 3.757812 -23.347656 2.9375 -24.859375 C 2.113281 -26.367188 1.703125 -28.101562 1.703125 -30.0625 C 1.703125 -32.613281 2.25 -34.757812 3.34375 -36.5 C 4.445312 -38.25 5.945312 -39.582031 7.84375 -40.5 C 9.75 -41.425781 11.921875 -41.890625 14.359375 -41.890625 C 15.960938 -41.890625 17.617188 -41.710938 19.328125 -41.359375 C 21.035156 -41.015625 22.691406 -40.507812 24.296875 -39.84375 L 23.1875 -31.890625 C 20.28125 -33.265625 17.707031 -33.953125 15.46875 -33.953125 C 14.132812 -33.953125 13.046875 -33.65625 12.203125 -33.0625 C 11.359375 -32.476562 10.9375 -31.5 10.9375 -30.125 C 10.9375 -28.90625 11.394531 -27.804688 12.3125 -26.828125 C 13.238281 -25.847656 14.546875 -24.847656 16.234375 -23.828125 C 18.046875 -22.890625 19.65625 -21.820312 21.0625 -20.625 C 22.476562 -19.425781 23.609375 -18.039062 24.453125 -16.46875 C 25.296875 -14.90625 25.71875 -13.082031 25.71875 -11 C 25.71875 -8.53125 25.144531 -6.410156 24 -4.640625 C 22.863281 -2.878906 21.304688 -1.535156 19.328125 -0.609375 C 17.347656 0.304688 15.082031 0.765625 12.53125 0.765625 Z M 12.53125 0.765625 "/></g></g></g></svg>